REM DIRINDEX 1\2\6,1\2\7,1\2\8,1\3\9,1\3\10,1\3\11,1\4\12,1\4\13,1\4\14,1\5\15,1\5\16,1\5\17,1\5\18
REM DIRNAME folder01,folder02,folder03,folder04,folder05,folder06,folder07,folder08,folder09,folder10,folder11,folder12,folder13,folder14,folder15,folder16,folder17,folder18
TITLE ""
FILE "" MP3
  TRACK 01 AUDIO
    TITLE "16:cjc019_4475"
    INDEX 01 00:00:00
  TRACK 02 AUDIO
    TITLE "0:"
    INDEX 01 00:01:03
  TRACK 03 AUDIO
    TITLE "18:cjc019_4476"
    INDEX 01 00:01:54
  TRACK 04 AUDIO
    TITLE "0:"
    INDEX 01 00:04:58
  TRACK 05 AUDIO
    TITLE "17:cjc019_4477"
    INDEX 01 00:05:34
  TRACK 06 AUDIO
    TITLE "0:"
    INDEX 01 00:06:49
  TRACK 07 AUDIO
    TITLE "16:cjc019_4478"
    INDEX 01 00:08:26
  TRACK 08 AUDIO
    TITLE "0:"
    INDEX 01 00:09:08
  TRACK 09 AUDIO
    TITLE "18:cjc019_4479"
    INDEX 01 00:09:73
  TRACK 10 AUDIO
    TITLE "0:"
    INDEX 01 00:12:67
  TRACK 11 AUDIO
    TITLE "17:cjc019_4480"
    INDEX 01 00:13:41
  TRACK 12 AUDIO
    TITLE "0:"
    INDEX 01 00:14:37
  TRACK 13 AUDIO
    TITLE "16:cjc019_4481"
    INDEX 01 00:16:18
  TRACK 14 AUDIO
    TITLE "0:"
    INDEX 01 00:17:43
  TRACK 15 AUDIO
    TITLE "18:cjc019_4482"
    INDEX 01 00:18:19
  TRACK 16 AUDIO
    TITLE "0:"
    INDEX 01 00:20:53
  TRACK 17 AUDIO
    TITLE "17:cjc019_4483"
    INDEX 01 00:21:25
  TRACK 18 AUDIO
    TITLE "0:"
    INDEX 01 00:22:46
  TRACK 19 AUDIO
    TITLE "16:cjc019_4484"
    INDEX 01 00:24:20
  TRACK 20 AUDIO
    TITLE "0:"
    INDEX 01 00:25:25
  TRACK 21 AUDIO
    TITLE "18:cjc019_4485"
    INDEX 01 00:26:03
  TRACK 22 AUDIO
    TITLE "0:"
    INDEX 01 00:30:71
  TRACK 23 AUDIO
    TITLE "17:cjc019_4486"
    INDEX 01 00:31:47
  TRACK 24 AUDIO
    TITLE "0:"
    INDEX 01 00:32:56
  TRACK 25 AUDIO
    TITLE "16:cjc019_4487"
    INDEX 01 00:34:40
  TRACK 26 AUDIO
    TITLE "0:"
    INDEX 01 00:35:41
  TRACK 27 AUDIO
    TITLE "18:cjc019_4488"
    INDEX 01 00:36:23
  TRACK 28 AUDIO
    TITLE "0:"
    INDEX 01 00:39:35
  TRACK 29 AUDIO
    TITLE "17:cjc019_4489"
    INDEX 01 00:40:13
  TRACK 30 AUDIO
    TITLE "0:"
    INDEX 01 00:41:16
  TRACK 31 AUDIO
    TITLE "16:cjc019_4490"
    INDEX 01 00:42:72
  TRACK 32 AUDIO
    TITLE "0:"
    INDEX 01 00:43:70
  TRACK 33 AUDIO
    TITLE "18:cjc019_4491"
    INDEX 01 00:44:56
  TRACK 34 AUDIO
    TITLE "0:"
    INDEX 01 00:47:62
  TRACK 35 AUDIO
    TITLE "17:cjc019_4492"
    INDEX 01 00:48:40
  TRACK 36 AUDIO
    TITLE "0:"
    INDEX 01 00:49:41
  TRACK 37 AUDIO
    TITLE "16:cjc019_4493"
    INDEX 01 00:51:22
  TRACK 38 AUDIO
    TITLE "0:"
    INDEX 01 00:52:43
  TRACK 39 AUDIO
    TITLE "18:cjc019_4494"
    INDEX 01 00:53:17
  TRACK 40 AUDIO
    TITLE "0:"
    INDEX 01 00:55:67
  TRACK 41 AUDIO
    TITLE "17:cjc019_4495"
    INDEX 01 00:56:41
  TRACK 42 AUDIO
    TITLE "0:"
    INDEX 01 00:57:68
  TRACK 43 AUDIO
    TITLE "16:cjc019_4496"
    INDEX 01 00:59:45
  TRACK 44 AUDIO
    TITLE "0:"
    INDEX 01 01:00:64
  TRACK 45 AUDIO
    TITLE "18:cjc019_4497"
    INDEX 01 01:01:44
  TRACK 46 AUDIO
    TITLE "0:"
    INDEX 01 01:06:43
  TRACK 47 AUDIO
    TITLE "17:cjc019_4498"
    INDEX 01 01:07:15
  TRACK 48 AUDIO
    TITLE "0:"
    INDEX 01 01:08:35
  TRACK 49 AUDIO
    TITLE "16:cjc019_4499"
    INDEX 01 01:10:14
  TRACK 50 AUDIO
    TITLE "0:"
    INDEX 01 01:11:33
  TRACK 51 AUDIO
    TITLE "18:cjc019_4500"
    INDEX 01 01:12:15
  TRACK 52 AUDIO
    TITLE "0:"
    INDEX 01 01:14:61
  TRACK 53 AUDIO
    TITLE "17:cjc019_4501"
    INDEX 01 01:15:37
  TRACK 54 AUDIO
    TITLE "0:"
    INDEX 01 01:16:60
  TRACK 55 AUDIO
    TITLE "16:cjc019_4502"
    INDEX 01 01:18:39
  TRACK 56 AUDIO
    TITLE "0:"
    INDEX 01 01:19:34
  TRACK 57 AUDIO
    TITLE "18:cjc019_4503"
    INDEX 01 01:20:28
  TRACK 58 AUDIO
    TITLE "0:"
    INDEX 01 01:28:41
  TRACK 59 AUDIO
    TITLE "17:cjc019_4504"
    INDEX 01 01:29:29
  TRACK 60 AUDIO
    TITLE "0:"
    INDEX 01 01:30:26
  TRACK 61 AUDIO
    TITLE "16:cjc019_4505"
    INDEX 01 01:32:08
  TRACK 62 AUDIO
    TITLE "0:"
    INDEX 01 01:33:23
  TRACK 63 AUDIO
    TITLE "18:cjc019_4506"
    INDEX 01 01:34:01
  TRACK 64 AUDIO
    TITLE "0:"
    INDEX 01 01:35:51
  TRACK 65 AUDIO
    TITLE "17:cjc019_4507"
    INDEX 01 01:36:23
  TRACK 66 AUDIO
    TITLE "0:"
    INDEX 01 01:37:42
  TRACK 67 AUDIO
    TITLE "16:cjc019_4508"
    INDEX 01 01:39:17
  TRACK 68 AUDIO
    TITLE "0:"
    INDEX 01 01:40:19
  TRACK 69 AUDIO
    TITLE "18:cjc019_4509"
    INDEX 01 01:40:72
  TRACK 70 AUDIO
    TITLE "0:"
    INDEX 01 01:45:51
  TRACK 71 AUDIO
    TITLE "17:cjc019_4510"
    INDEX 01 01:46:23
  TRACK 72 AUDIO
    TITLE "0:"
    INDEX 01 01:47:25
  TRACK 73 AUDIO
    TITLE "16:cjc019_4511"
    INDEX 01 01:49:00
  TRACK 74 AUDIO
    TITLE "0:"
    INDEX 01 01:50:19
  TRACK 75 AUDIO
    TITLE "18:cjc019_4512"
    INDEX 01 01:51:01
  TRACK 76 AUDIO
    TITLE "0:"
    INDEX 01 01:52:18
  TRACK 77 AUDIO
    TITLE "17:cjc019_4513"
    INDEX 01 01:52:67
  TRACK 78 AUDIO
    TITLE "0:"
    INDEX 01 01:54:09
  TRACK 79 AUDIO
    TITLE "16:cjc019_4514"
    INDEX 01 01:55:62
  TRACK 80 AUDIO
    TITLE "0:"
    INDEX 01 01:57:00
  TRACK 81 AUDIO
    TITLE "18:cjc019_4515"
    INDEX 01 01:57:57
  TRACK 82 AUDIO
    TITLE "0:"
    INDEX 01 01:59:03
  TRACK 83 AUDIO
    TITLE "17:cjc019_4516"
    INDEX 01 01:59:51
  TRACK 84 AUDIO
    TITLE "0:"
    INDEX 01 02:00:65
  TRACK 85 AUDIO
    TITLE "16:cjc019_4517"
    INDEX 01 02:02:46
  TRACK 86 AUDIO
    TITLE "0:"
    INDEX 01 02:03:59
  TRACK 87 AUDIO
    TITLE "18:cjc019_4518"
    INDEX 01 02:04:39
  TRACK 88 AUDIO
    TITLE "0:"
    INDEX 01 02:08:25
  TRACK 89 AUDIO
    TITLE "17:cjc019_4519"
    INDEX 01 02:09:01
  TRACK 90 AUDIO
    TITLE "0:"
    INDEX 01 02:10:16
  TRACK 91 AUDIO
    TITLE "16:cjc019_4520"
    INDEX 01 02:11:66
  TRACK 92 AUDIO
    TITLE "0:"
    INDEX 01 02:13:16
  TRACK 93 AUDIO
    TITLE "18:cjc019_4521"
    INDEX 01 02:13:65
  TRACK 94 AUDIO
    TITLE "0:"
    INDEX 01 02:17:26
  TRACK 95 AUDIO
    TITLE "17:cjc019_4522"
    INDEX 01 02:18:02
  TRACK 96 AUDIO
    TITLE "0:"
    INDEX 01 02:19:25
  TRACK 97 AUDIO
    TITLE "16:cjc019_4523"
    INDEX 01 02:21:10
  TRACK 98 AUDIO
    TITLE "0:"
    INDEX 01 02:22:17
  TRACK 99 AUDIO
    TITLE "18:cjc019_4524"
    INDEX 01 02:22:66
  TRACK 100 AUDIO
    TITLE "0:"
    INDEX 01 02:26:13
  TRACK 101 AUDIO
    TITLE "17:cjc019_4525"
    INDEX 01 02:26:66
  TRACK 102 AUDIO
    TITLE "0:"
    INDEX 01 02:28:00
  TRACK 103 AUDIO
    TITLE "16:cjc019_4526"
    INDEX 01 02:29:57
  TRACK 104 AUDIO
    TITLE "0:"
    INDEX 01 02:30:60
  TRACK 105 AUDIO
    TITLE "18:cjc019_4527"
    INDEX 01 02:31:36
  TRACK 106 AUDIO
    TITLE "0:"
    INDEX 01 02:37:21
  TRACK 107 AUDIO
    TITLE "17:cjc019_4528"
    INDEX 01 02:38:01
  TRACK 108 AUDIO
    TITLE "0:"
    INDEX 01 02:39:08
